<svg xmlns="http://www.w3.org/2000/svg" viewBox="0 0 512 512">
  <defs>
    <linearGradient id="b" x1="0" y1="0" x2="0" y2="1">
      <stop offset="0%" stop-color="#6b4a30"/>
      <stop offset="100%" stop-color="#4a3020"/>
    </linearGradient>
  </defs>
  <rect width="512" height="512" rx="90" fill="url(#b)"/>
  <path d="M120 400 L120 220 Q120 120 256 100 Q392 120 392 220 L392 400" fill="none" stroke="#e8c9a0" stroke-width="32" stroke-linecap="round" stroke-linejoin="round"/>
  <path d="M232 190 Q220 190 218 200 L218 210 Q210 212 210 220 L210 228 Q218 230 220 230 L214 310 Q212 340 230 355 L226 370 Q222 380 232 385 L280 385 Q290 380 286 370 L282 355 Q300 340 298 310 L292 230 Q294 230 302 228 L302 220 Q302 212 294 210 L294 200 Q292 190 280 190 Z" fill="#c0392b"/>
  <path d="M220 210 Q196 230 210 260" fill="none" stroke="#c0392b" stroke-width="10" stroke-linecap="round"/>
  <path d="M292 210 Q316 230 302 260" fill="none" stroke="#c0392b" stroke-width="10" stroke-linecap="round"/>
  <line x1="100" y1="400" x2="412" y2="400" stroke="#e8c9a0" stroke-width="12" stroke-linecap="round"/>
</svg>
