<svg xmlns="http://www.w3.org/2000/svg" viewBox="0 0 512 512">
  <defs>
    <linearGradient id="b" x1="0" y1="0" x2="0" y2="1">
      <stop offset="0%" stop-color="#6b4a30"/>
      <stop offset="100%" stop-color="#4a3020"/>
    </linearGradient>
  </defs>
  <!-- Full bleed background for maskable safe zone -->
  <rect width="512" height="512" fill="url(#b)"/>
  <!-- Content within 80% safe zone (51.2px padding each side) -->
  <path d="M145 380 L145 230 Q145 145 256 128 Q367 145 367 230 L367 380" fill="none" stroke="#e8c9a0" stroke-width="26" stroke-linecap="round" stroke-linejoin="round"/>
  <path d="M236 205 Q226 205 224 213 L224 222 Q218 224 218 230 L218 237 Q224 238 226 238 L221 305 Q219 330 234 342 L231 354 Q228 362 236 366 L276 366 Q284 362 281 354 L278 342 Q293 330 291 305 L286 238 Q288 238 294 237 L294 230 Q294 224 288 222 L288 213 Q286 205 276 205 Z" fill="#c0392b"/>
  <path d="M226 222 Q206 238 218 262" fill="none" stroke="#c0392b" stroke-width="8" stroke-linecap="round"/>
  <path d="M286 222 Q306 238 294 262" fill="none" stroke="#c0392b" stroke-width="8" stroke-linecap="round"/>
  <line x1="128" y1="380" x2="384" y2="380" stroke="#e8c9a0" stroke-width="10" stroke-linecap="round"/>
</svg>
